<svg width="64" height="64" viewBox="0 0 64 64" fill="none" xmlns="http://www.w3.org/2000/svg">
<rect width="64" height="64" rx="18" fill="white"/>
<path fill-rule="evenodd" clip-rule="evenodd" d="M44 28.25H20C17.9289 28.25 16.25 29.9289 16.25 32C16.25 34.0711 17.9289 35.75 20 35.75H44C46.0711 35.75 47.75 34.0711 47.75 32C47.75 29.9289 46.0711 28.25 44 28.25ZM20 22C14.4772 22 10 26.4772 10 32C10 37.5228 14.4772 42 20 42H44C49.5229 42 54 37.5228 54 32C54 26.4772 49.5229 22 44 22H20Z" fill="black"/>
</svg>